<?xml version="1.0" encoding="UTF-8" standalone="no"?>
<!-- Created with Inkscape (http://www.inkscape.org/) -->

<svg
   width="20"
   height="20"
   viewBox="0 0 20 20"
   version="1.1"
   id="svg5"
   inkscape:version="1.2.1 (9c6d41e, 2022-07-14)"
   sodipodi:docname="heart.svg"
   inkscape:export-filename="heart.png"
   inkscape:export-xdpi="96"
   inkscape:export-ydpi="96"
   xmlns:inkscape="http://www.inkscape.org/namespaces/inkscape"
   xmlns:sodipodi="http://sodipodi.sourceforge.net/DTD/sodipodi-0.dtd"
   xmlns="http://www.w3.org/2000/svg"
   xmlns:svg="http://www.w3.org/2000/svg">
  <sodipodi:namedview
     id="namedview7"
     pagecolor="#505050"
     bordercolor="#ffffff"
     borderopacity="1"
     inkscape:showpageshadow="0"
     inkscape:pageopacity="0"
     inkscape:pagecheckerboard="1"
     inkscape:deskcolor="#505050"
     inkscape:document-units="mm"
     showgrid="true"
     inkscape:zoom="26.9109"
     inkscape:cx="13.6376"
     inkscape:cy="10.2375"
     inkscape:window-width="1920"
     inkscape:window-height="1024"
     inkscape:window-x="0"
     inkscape:window-y="28"
     inkscape:window-maximized="1"
     inkscape:current-layer="layer1">
    <inkscape:grid
       type="xygrid"
       id="grid686"
       spacingx="1"
       spacingy="1"
       color="#3fd9ff"
       opacity="0.12549"
       empcolor="#ee3fff"
       empopacity="0.25098" />
  </sodipodi:namedview>
  <defs
     id="defs2" />
  <g
     inkscape:label="Calque 1"
     inkscape:groupmode="layer"
     id="layer1">
    <path
       id="path790"
       style="fill:#ddafe9;stroke:#c83737;stroke-width:1;stroke-linecap:round;stroke-linejoin:round;stroke-dasharray:none;paint-order:fill markers stroke;stop-color:#000000"
       d="M 5.00048 -0.0501981 A 4.99643 5.04827 0 0 0 0.0219645 4.74082 C 0.00831988 4.82054 0.000480175 4.90539 0.000480175 4.99863 C 0.000480175 5.1814 0.0177006 5.36892 0.0434489 5.55918 A 4.99643 5.04827 0 0 0 0.547355 7.26621 C 2.63013 12.0994 10.0005 17.9986 10.0005 17.9986 C 10.0005 17.9986 17.3708 12.0994 19.4536 7.26621 A 4.99643 5.04827 0 0 0 19.9575 5.55918 C 19.9833 5.36892 20.0005 5.1814 20.0005 4.99863 C 20.0005 4.96269 19.9967 4.93096 19.9946 4.89707 A 4.99643 5.04827 0 0 0 15.0005 -0.0501981 A 4.99643 5.04827 0 0 0 10.0044 4.99863 L 10.0005 4.99863 L 9.99657 4.99863 A 4.99643 5.04827 0 0 0 5.00048 -0.0501981 z "
       transform="translate(-4.80175e-4,0.00137)" />
  </g>
</svg>
